<svg xmlns="http://www.w3.org/2000/svg" xmlns:xlink="http://www.w3.org/1999/xlink" xml:space="preserve" fill-rule="evenodd" clip-rule="evenodd" image-rendering="optimizeQuality" shape-rendering="geometricPrecision" text-rendering="geometricPrecision" version="1.1" viewBox="0 0 29700 21000">
  <defs>
    <linearGradient id="a" x1="5432.54" x2="5756.33" y1="8947.86" y2="12061.31" gradientUnits="userSpaceOnUse">
      <stop offset="0" stop-color="#228b22" stop-opacity="1"/>
      <stop offset=".741" stop-color="#63b81a" stop-opacity="1"/>
      <stop offset="1" stop-color="#a5e612" stop-opacity="1"/>
    </linearGradient>
    <linearGradient id="b" x1="18937.1" x2="19092.5" y1="9646.18" y2="11520.49" gradientUnits="userSpaceOnUse">
      <stop offset="0" stop-color="#228b22" stop-opacity="1"/>
      <stop offset="1" stop-color="#a5e612" stop-opacity="1"/>
    </linearGradient>
  </defs>
  <path fill="#282829" d="M9348.51 9880.6c0-79.2 16.52-203.2-25.4-203.2h-482.6v1811.86h524.93v-804.33c0-224.74 15.52-406.72 189.76-521.44 93.07-61.27 247.18-65.94 349.98-26.77 145.91 55.6 196.86 220.8 196.86 387.34v965.2h524.94c0-176.59-9.67-876.93 11.74-1021.19 19.46-131.15 69.12-235.57 179.4-303.2 150.64-92.4 382.19-75.4 486.44 88 63.94 100.21 59.01 219.15 59.01 381.26l-.15 770.62c-.53 39.14-11.33 84.51 25.55 84.51h508v-999.06c0-194.07-34.84-458.68-175.49-603.44-148.76-153.12-315.61-234.76-552.64-234.76-145.29 0-285.04 31.67-386.69 78.97-56.17 26.14-247.25 141.52-265.24 208.89-59.63-15.92-36.96-99.68-245.47-203.26-50.92-25.3-94.88-46.71-160.02-60.11-241.69-49.74-456.02-22.59-654.66 109.16-29.5 19.56-86.78 70.24-108.25 94.95m16255.99 677.33c0-162.29 24.62-253.34 141.86-357.67 259.83-231.23 797.94-99.99 797.94 298.4 0 159.87-19.93 235.57-129.03 345.11-232.98 233.93-810.77 127.86-810.77-285.84m551.26 1608.66h-201.52c-146.97-8.27-292.27-33.54-424.27-69.41-221.35-60.14-243.34-111.36-365.74-176.12 11.11-41.6 191.35-330.12 203.2-381 22.96 6.13 47.64 29.13 67.6 42.46 206.95 138.24 575.18 207.11 829 126 239.19-76.43 271.8-259.38 271.8-524.06-30.28 20.28-46.45 47.98-74.8 69.14-69.93 52.2-192.67 108.86-279.8 126.59-439.73 89.45-900.06-109.99-1058.25-527.01-107-282.07-65.91-613.68 114.94-856.56 294.66-395.7 970.52-458.37 1283.33-143.78 18.79 18.89 32.07 41.16 48.45 53.16v-228.6h499.53v1523.99c0 148.9-27.43 314.65-67.64 423.43-138.02 373.34-480.55 520.09-845.83 541.77m-10186.32-677.33h524.93v-440.27c0-17.86 221.13-251.43 262.47-262.46 6.92 25.93 23.31 38.54 48.85 69.68 19.05 23.22 35.45 43.64 52.75 65.78 35.08 44.93 69.5 83.67 106.41 130.66l316.78 394.42c44.83 60.03 56.67 42.19 194.87 42.19h474.14c-25.04-47.31-366.05-472.78-403.77-519.1l-409.03-522.3 370.41-383.11c35.75-35.75 364.01-347.48 374.65-387.35-174.96 0-349.99.51-524.94-.01-150.97-.45-84.78 2.35-180.29 82.18l-609.22 576.11c-23.35 23.38-40.04 52.29-74.08 61.38V8991.6h-524.93zm-2878.67-330.2c-351.55 0-353.04-296.61-203.12-380.93 114.21-64.24 425.1-42.4 584.12-42.4 0 137.32 23.95 243.69-133.62 348.98-65.28 43.62-141.56 74.35-247.38 74.35m-745.06-1286.93c63.94 120.84 122.47 243.51 186.26 364.07 87.66-23.41 161.95-160.87 567.27-160.87 99.84 0 212.39 40.15 264.78 90.82 107.19 103.67 84.18 155.12 107.75 256.31-295.29 0-739.83-26.72-956.81 118.45-150.37 100.61-236.99 205.15-236.99 440.35 0 184.37 121.06 364.8 276.39 443.28 219.83 111.08 540.21 127.58 753.85 19.69 41.28-20.84 80.2-45 110.82-75.45 76.11-75.69 43.09-49.59 86.61-99.65v220.13h491.07v-1066.8c0-170.72-45.11-348.87-135.31-474.29-201.22-279.78-632.78-330.07-979.94-276.88-197.35 30.24-371.05 90.55-535.75 200.84m10989.72 16.93V9677.4h-499.53v1811.86h524.93v-889c0-143.04 36-268.23 100.14-348.6 30.38-38.07 84.12-80.01 129.41-99.18 223.33-94.55 491.85-37.49 547.43 221.14 34.31 159.69 18.89 907.31 18.89 1115.64h524.93v-1117.6c0-141.06-50.63-305.31-125.27-416.59-212.55-316.86-661.9-371.14-967.19-235.6-25.24 11.21-44.57 16.88-70.31 31.29-111.05 62.15-131.77 103.71-183.43 138.3m-4385.73 1634.07c215.62 0 374.79 1.73 567.21-93.2 14.88-7.34 23.95-10.44 40.85-18.42l118.95-75.78c50.96-41.21 96.16-65.46 128.13-125.87-153.53 0-282.52 59.27-440.27 59.27-208.35 0-353.94 2.64-535.91-132.96-80.48-59.98-211.37-203.52-234.56-290.38 265.8 31.56 529.05-33.81 780.01-117.45 103.7-34.56 201.57-68.79 304.73-101.68 102.22-32.59 221.83-60.27 354.6-60.27-8.49-31.77-84.02-84.32-110.48-101.19-259.46-165.5-723.99-136.48-1005.56-57.71-75.29 21.06-37.44-1.66-86.61 22.38-31.6 15.45-65.17 24.2-100.24 35.91-42.32 14.14-159.64 63.75-195.71 66.75 0-75.83 8.46-125.47 27.1-184.56 94.35-299 459.33-346.6 665.77-211.98 63.18 41.19 101.44 92.53 136.86 159.47 461.69 0 425.27 74.44 541.87 101.6-2.49-111.58-81.28-282.73-142.65-365.35-206.45-277.99-462.9-388.18-822.55-388.18-205.65 0-466.48 87.54-607.43 213.84-83.39 74.72-165.58 154.98-219.66 254.47-112.63 207.24-145.23 439.25-95.18 682.55 59.74 290.34 269.22 531.63 542.34 642.99 58.1 23.69 111.24 41.42 180.25 56.83zm1405.47-1803.4h-279.4v406.4h279.4c0 227.6-20.85 791.09 34.77 981.22 76.91 262.89 303.62 407.31 608.69 407.31 126.65 0 168.08-.02 296.5-33.71 71.1-18.65 111.8-46 169.17-76.36-12.38-53.13-131.35-323.07-135.47-372.53-79.92 6.65-19.24 59.27-254 59.27-106.53 0-186.26-96.33-186.26-211.67v-753.53h448.73v-406.4h-448.73v-440.26h-533.4zm-5350.93 194.73V9677.4h-499.53v1811.86h524.93v-872.07c0-306.26 176.51-482.59 482.6-482.59 105.46 0 118.53 18.1 118.53-16.94V9677.4c0-72.18-340.08 28.47-366.65 39.74-122.42 51.92-180.74 106.28-259.88 197.32m6790.26 753.53v821.27h524.93l-8.46-1803.4-524.94-8.46c0 339.29 8.47 651.1 8.47 990.59m-67.73-1557.86c0 146.35 49.72 240.77 186.32 296.28 117.72 47.83 266.82 29.94 365.39-49.36 191.01-153.67 106.3-509.38-196.11-509.38-100.71 0-179.92 2.75-260.5 78.16-48.18 45.09-95.1 110.44-95.1 184.3"/>
  <path fill="url(#a)" stroke="#228b22" stroke-miterlimit="22.926" stroke-width="20" d="M8024.33 9389.72c27.14 0 49.15 23.25 49.15 51.92s-22.01 51.91-49.15 51.91-49.15-23.24-49.15-51.91 22.01-51.92 49.15-51.92zm-4555.66 1017.33c0-28.34 1-56 2.99-82.99q2.955-40.125 8.85-78.27c14.42-93.23 41.98-177.56 82.69-253 63.02-116.77 151.06-207.6 264.12-272.47 113.07-64.87 243.74-97.31 392.02-97.31s278.03 32.44 389.24 97.31 198.32 154.77 261.34 269.69c2.42 4.4 4.78 8.83 7.1 13.29 103.87.47 206.55 5.09 307.8 13.69 72.36 6.14 144 14.31 214.84 24.43 72.73 14.66 142.55 35.59 208.4 62.43 46.34 18.89 90.72 40.71 132.76 65.31-32.36-178.12-90.97-338.85-175.83-482.2-137.16-231.69-323.44-409.63-558.84-533.81-235.39-124.18-499.52-186.28-792.37-186.28-303.98 0-576.44 65.8-817.4 197.4-240.95 131.6-430.94 313.24-569.95 544.93s-208.52 497.67-208.52 797.94c0 296.56 70.43 560.68 211.3 792.37q211.305 347.535 597.75 547.71c257.65 133.45 556.98 200.18 898.03 200.18 270.61 0 509.71-41.7 717.31-125.11 207.59-83.41 379.97-202.96 517.13-358.66-275.06-10.7-1451.39 507.58-2009.14-642.53 87.72 6.07 176.45 9.16 266.07 9.16 868.94 0 1462.82-460.5 2121.34-473.45-89.92-93.28-202.37-167.22-329.64-219.1-65.85-26.83-135.67-47.77-208.4-62.43a3787 3787 0 0 0-214.84-24.43c-106.96-9.08-215.5-13.73-325.36-13.73-607.83 0-998.43 183.25-1390.79 321.83zm556-155.46-12.67-15.11zm3139.08 1165.91a3629 3629 0 0 1-34.19 30.29c-18.42 16.1-37.13 32.1-56.09 47.98-263.69 220.71-537.53 382.89-782.96 475.75l1.2 8.41c309.35-72.86 628.69-106.9 946.4-106.9 369.16 0 720.14 46.26 1037.45 129.56h8.51c.24-3.43.45-6.87.62-10.33l-.45-59.42c-103.92-473.42-707.21-568.52-1120.49-515.34zM5783.63 9264.25c491.88 9.67 1168.26 351 1182.45 351 110.47-131.89 227.28-282.97 358.5-395 78.01-66.6 164.17-101 248.71-159.81 1.88-1.31 3.77-2.62 5.66-3.93-509.58-118.07-1406.8-195.33-1795.32 207.74zm-320.1 2598.33c2.25 3.26 4.57 6.47 6.96 9.64 533.05 708.17 2287.44-883.2 2493.49-2052.7 0 0 149.79-14.92 325.48-207.36h-.4c127.44-74.95 294.46-58.74 281.15-69.68-108.31-68.95-231.49-106.47-282.13-120.01.44 2.12.87 4.25 1.28 6.39-40.27-207.76-214.3-364.05-422.89-364.05-1016.21 0-1349.84 2775.95-2402.94 2797.77zm2825.84-2433.67zm2.04 11.22c.63 3.71 1.2 7.44 1.75 11.18-.55-3.74-1.13-7.47-1.75-11.18zm1.75 11.24zm4.41 46zm.43 11.77z"/>
  <path fill="url(#b)" stroke="#228b22" stroke-miterlimit="22.926" stroke-width="20" d="M18730.55 10465.78c-42.32 14.14-159.64 63.75-195.71 66.75 0-75.83 8.46-125.47 27.1-184.56 94.35-299 459.33-346.6 665.77-211.98 63.18 41.19 101.44 92.53 136.86 159.47 461.69 0 425.27 74.44 541.87 101.6-2.49-111.58-81.28-282.73-142.65-365.35-206.45-277.99-462.9-388.18-822.55-388.18-205.65 0-466.48 87.54-607.43 213.84-83.39 74.72-165.58 154.98-219.66 254.47-112.63 207.24-145.23 439.25-95.18 682.55 59.74 290.34 269.22 531.63 542.34 642.99 58.1 23.69 111.24 41.42 180.25 56.83l208.14 28.92c215.62 0 374.79 1.73 567.21-93.2 14.88-7.34 23.95-10.44 40.85-18.42l118.95-75.78c50.96-41.21 96.16-65.46 128.13-125.87-153.53 0-282.52 59.27-440.27 59.27-208.35 0-353.94 2.64-535.91-132.96-80.48-59.98-211.37-203.52-234.56-290.38 265.8 31.56 529.05-33.81 780.01-117.45 103.7-34.56 201.57-68.79 304.73-101.68 102.22-32.59 221.83-60.27 354.6-60.27-8.49-31.77-84.02-84.32-110.48-101.19-259.46-165.5-723.99-136.48-1005.56-57.71-75.29 21.06-37.44-1.66-86.61 22.38-31.6 15.45-65.17 24.2-100.24 35.91z"/>
</svg>
